<svg xmlns="http://www.w3.org/2000/svg" xmlns:xlink="http://www.w3.org/1999/xlink" width="1080" zoomAndPan="magnify" viewBox="0 0 810 809.999993" height="1080" preserveAspectRatio="xMidYMid meet" version="1.0"><defs><g/><clipPath id="b5e790ade7"><rect x="0" width="594" y="0" height="764"/></clipPath></defs><rect x="-81" width="972" fill="#ffffff" y="-80.999999" height="971.999992" fill-opacity="1"/><rect x="-81" width="972" fill="#000000" y="-80.999999" height="971.999992" fill-opacity="1"/><g transform="matrix(1, 0, 0, 1, 108, 0.000000000000039746)"><g clip-path="url(#b5e790ade7)"><g fill="#ffffff" fill-opacity="1"><g transform="translate(1.443789, 599.71153)"><g><path d="M 275.65625 -75.03125 C 275.65625 -61.382812 272.242188 -48.878906 265.421875 -37.515625 C 258.597656 -26.148438 249.503906 -17.054688 238.140625 -10.234375 C 226.773438 -3.410156 214.269531 0 200.625 0 L 98.328125 0 C 84.679688 0 72.082031 -3.410156 60.53125 -10.234375 C 48.976562 -17.054688 39.789062 -26.148438 32.96875 -37.515625 C 26.144531 -48.878906 22.734375 -61.382812 22.734375 -75.03125 L 22.734375 -308.625 C 22.734375 -322.644531 26.144531 -335.335938 32.96875 -346.703125 C 39.789062 -358.066406 48.976562 -367.160156 60.53125 -373.984375 C 72.082031 -380.804688 84.679688 -384.21875 98.328125 -384.21875 L 200.625 -384.21875 C 214.269531 -384.21875 226.773438 -380.804688 238.140625 -373.984375 C 249.503906 -367.160156 258.597656 -358.066406 265.421875 -346.703125 C 272.242188 -335.335938 275.65625 -322.644531 275.65625 -308.625 L 275.65625 -293.28125 C 275.65625 -286.070312 273.191406 -280.003906 268.265625 -275.078125 C 263.335938 -270.160156 257.085938 -267.703125 249.515625 -267.703125 L 234.171875 -267.703125 C 226.960938 -267.703125 220.800781 -270.160156 215.6875 -275.078125 C 210.570312 -280.003906 208.015625 -286.070312 208.015625 -293.28125 L 208.015625 -308.625 C 208.015625 -313.925781 205.550781 -316.578125 200.625 -316.578125 L 98.328125 -316.578125 C 93.398438 -316.578125 90.9375 -313.925781 90.9375 -308.625 L 90.9375 -75.03125 C 90.9375 -73.132812 91.691406 -71.332031 93.203125 -69.625 C 94.722656 -67.914062 96.429688 -67.0625 98.328125 -67.0625 L 200.625 -67.0625 C 202.519531 -67.0625 204.222656 -67.914062 205.734375 -69.625 C 207.253906 -71.332031 208.015625 -73.132812 208.015625 -75.03125 L 208.015625 -92.078125 C 208.015625 -99.273438 210.570312 -105.429688 215.6875 -110.546875 C 220.800781 -115.660156 226.960938 -118.21875 234.171875 -118.21875 L 249.515625 -118.21875 C 257.085938 -118.21875 263.335938 -115.660156 268.265625 -110.546875 C 273.191406 -105.429688 275.65625 -99.273438 275.65625 -92.078125 Z M 275.65625 -75.03125 "/></g></g></g><g fill="#ffffff" fill-opacity="1"><g transform="translate(300.404145, 599.71153)"><g><path d="M 266.5625 -345.5625 L 187.5625 -198.921875 C 185.664062 -194.378906 185.664062 -190.023438 187.5625 -185.859375 L 266.5625 -38.078125 C 271.101562 -29.367188 270.914062 -20.84375 266 -12.5 C 260.6875 -4.164062 253.109375 0 243.265625 0 L 226.203125 0 C 215.210938 0 207.632812 -4.546875 203.46875 -13.640625 L 149.484375 -113.671875 C 149.097656 -115.191406 148.050781 -115.953125 146.34375 -115.953125 C 144.644531 -115.953125 143.414062 -115.191406 142.65625 -113.671875 L 88.671875 -13.640625 C 87.148438 -9.472656 84.207031 -6.15625 79.84375 -3.6875 C 75.488281 -1.226562 70.851562 0 65.9375 0 L 48.3125 0 C 38.84375 0 31.453125 -4.164062 26.140625 -12.5 C 21.210938 -20.84375 21.023438 -29.367188 25.578125 -38.078125 L 104.578125 -185.859375 C 106.472656 -190.023438 106.472656 -194.378906 104.578125 -198.921875 L 25.578125 -345.5625 C 21.023438 -355.03125 21.210938 -363.742188 26.140625 -371.703125 C 31.453125 -380.046875 38.84375 -384.21875 48.3125 -384.21875 L 65.9375 -384.21875 C 76.164062 -384.21875 83.742188 -379.671875 88.671875 -370.578125 L 142.65625 -269.96875 C 143.414062 -268.457031 144.550781 -267.703125 146.0625 -267.703125 C 147.582031 -267.703125 148.722656 -268.457031 149.484375 -269.96875 L 203.46875 -370.578125 C 208.394531 -379.671875 215.972656 -384.21875 226.203125 -384.21875 L 243.828125 -384.21875 C 253.296875 -384.21875 260.6875 -380.046875 266 -371.703125 C 270.914062 -363.742188 271.101562 -355.03125 266.5625 -345.5625 Z M 266.5625 -345.5625 "/></g></g></g></g></g></svg>